<svg width="120" height="120" viewBox="0 0 120 120" fill="none" xmlns="http://www.w3.org/2000/svg">
<path d="M0 10C0 4.47715 4.47715 0 10 0H110C115.523 0 120 4.47715 120 10V110C120 115.523 115.523 120 110 120H10C4.47715 120 0 115.523 0 110V10Z" fill="#A2E5E4"/>
<path d="M53.5952 60.6694L80.7072 47.3201C81.4647 46.9471 82.2882 46.7272 83.1306 46.6729C83.9729 46.6186 84.8176 46.7311 85.6166 47.0039C86.4155 47.2766 87.1532 47.7042 87.7871 48.2624C88.4211 48.8206 88.939 49.4983 89.3114 50.257L102.64 77.4105L75.9002 90.5768C74.2718 91.3786 72.3919 91.4998 70.6743 90.9135C68.9567 90.3272 67.5421 89.0815 66.7415 87.4506L53.5952 60.6694Z" fill="#4C2D86"/>
<path d="M76.698 26.4C79.2173 31.2228 79.7217 36.8509 78.1 42.0463C76.4784 47.2416 72.8636 51.5787 68.051 54.1033C63.2383 56.6279 57.6221 57.1333 52.4376 55.5083C47.2531 53.8832 42.9251 50.2609 40.4058 45.4381" fill="#17BEBB"/>
<path d="M36.1139 88.6344C46.7808 88.6344 55.428 79.9871 55.428 69.3203C55.428 58.6534 46.7808 50.0062 36.1139 50.0062C25.447 50.0062 16.7998 58.6534 16.7998 69.3203C16.7998 79.9871 25.447 88.6344 36.1139 88.6344Z" fill="#FF2F6D"/>
</svg>
