<svg width="120" height="120" viewBox="0 0 120 120" fill="none" xmlns="http://www.w3.org/2000/svg">
<path d="M0 10C0 4.47715 4.47715 0 10 0H110C115.523 0 120 4.47715 120 10V110C120 115.523 115.523 120 110 120H10C4.47715 120 0 115.523 0 110V10Z" fill="#A2E5E4"/>
<path d="M82.4168 86.2028C82.4168 87.3217 81.9734 88.3946 81.1842 89.1858C80.3949 89.9769 79.3245 90.4213 78.2083 90.4213H41.7085C41.1559 90.4213 40.6086 90.3122 40.098 90.1002C39.5874 89.8882 39.1235 89.5775 38.7327 89.1858C38.3419 88.7941 38.0318 88.329 37.8203 87.8172C37.6088 87.3054 37.5 86.7568 37.5 86.2028V32.7185C37.5021 31.6003 37.9461 30.5285 38.7349 29.7379C39.5237 28.9472 40.593 28.5021 41.7085 28.5H66.9751L82.4168 43.9784V86.2028Z" fill="#F1F0EE"/>
<path d="M68.3833 42.5748L82.4169 56.4624V43.9784L81.0089 42.5748H68.3833Z" fill="#A78CD9"/>
<path d="M66.9756 28.5V39.7521C66.9756 40.873 67.4199 41.9479 68.2106 42.7405C69.0013 43.5331 70.0738 43.9784 71.192 43.9784H82.4173L66.9756 28.5Z" fill="#6441A5"/>
<path d="M73.9992 62.2716H45.9243V65.0866H73.9992V62.2716Z" fill="#6441A5"/>
<path d="M73.9992 67.9016H45.9243V70.7165H73.9992V67.9016Z" fill="#6441A5"/>
<path d="M73.9992 73.5238H45.9243V76.3387H73.9992V73.5238Z" fill="#6441A5"/>
<path d="M66.9747 56.6418H45.9243V59.4568H66.9747V56.6418Z" fill="#6441A5"/>
</svg>
