<svg width="143" height="25" viewBox="0 0 143 25" fill="none" xmlns="http://www.w3.org/2000/svg">
<g clip-path="url(#clip0_2983_7053)">
<path fill-rule="evenodd" clip-rule="evenodd" d="M7.4087 10.6434C4.21079 10.6434 1.61737 13.2797 1.61737 16.533V17.4665C1.61737 20.7197 4.21079 23.356 7.4087 23.356H20.6411C23.839 23.356 26.4324 20.7197 26.4324 17.4665V16.533C26.4324 13.2797 23.839 10.6434 20.6411 10.6434H7.4087ZM-0.139923 16.533C-0.139923 12.2946 3.23916 8.85773 7.4087 8.85773H20.6411C24.8106 8.85773 28.1897 12.2946 28.1897 16.533V17.4665C28.1897 21.7048 24.8106 25.1417 20.6411 25.1417H7.4087C3.23916 25.1417 -0.139923 21.7048 -0.139923 17.4665V16.533Z" fill="#74D8D6"/>
<path fill-rule="evenodd" clip-rule="evenodd" d="M7.4087 1.64402C4.21079 1.64402 1.61737 4.28029 1.61737 7.53354V8.46703C1.61737 11.7203 4.21079 14.3566 7.4087 14.3566H20.6411C23.839 14.3566 26.4324 11.7203 26.4324 8.46703V7.53354C26.4324 4.28029 23.839 1.64402 20.6411 1.64402H7.4087ZM-0.139923 7.53354C-0.139923 3.29519 3.23916 -0.141693 7.4087 -0.141693H20.6411C24.8106 -0.141693 28.1897 3.29519 28.1897 7.53354V8.46703C28.1897 12.7054 24.8106 16.1423 20.6411 16.1423H7.4087C3.23916 16.1423 -0.139923 12.7054 -0.139923 8.46703V7.53354Z" fill="white"/>
<path d="M38.4951 5.5251C38.4949 5.45832 38.5077 5.39216 38.5327 5.3304C38.5577 5.26865 38.5944 5.21253 38.6408 5.16524C38.6872 5.11795 38.7422 5.08043 38.8029 5.05483C38.8636 5.02923 38.9286 5.01605 38.9943 5.01605H44.5196C46.1677 5.01605 47.5017 5.50322 48.315 6.32877C48.6182 6.63321 48.8577 6.99694 49.0189 7.39803C49.1801 7.79911 49.2598 8.22925 49.2531 8.66249V8.70479C49.2706 9.29741 49.139 9.88476 48.8706 10.4111C48.6023 10.9375 48.2061 11.3854 47.7197 11.7124C47.6483 11.7653 47.5921 11.8367 47.5568 11.9191C47.5216 12.0015 47.5086 12.092 47.5193 12.1812C47.53 12.2704 47.5639 12.3551 47.6175 12.4266C47.6712 12.498 47.7426 12.5536 47.8244 12.5875C49.0968 13.1549 50.0664 14.1322 50.0664 15.7614V15.8037C50.0664 18.2833 47.9808 19.8542 44.8323 19.8542H38.9957C38.93 19.8542 38.865 19.841 38.8043 19.8154C38.7437 19.7898 38.6886 19.7523 38.6422 19.705C38.5958 19.6577 38.5591 19.6016 38.5341 19.5398C38.5091 19.4781 38.4963 19.4119 38.4965 19.3451L38.4951 5.5251ZM44.3948 11.8641C46.5837 11.8641 48.1472 10.7833 48.1472 8.81127V8.76897C48.1472 7.13537 46.8347 6.03414 44.4995 6.03414H40.0787C40.013 6.03395 39.9479 6.04694 39.8872 6.07236C39.8265 6.09778 39.7713 6.13514 39.7248 6.18229C39.6783 6.22944 39.6414 6.28547 39.6162 6.34714C39.591 6.40882 39.5781 6.47494 39.5781 6.54172V11.355C39.5781 11.49 39.6308 11.6195 39.7247 11.715C39.8186 11.8104 39.9459 11.8641 40.0787 11.8641H44.3948ZM44.8767 18.839C47.3783 18.839 48.9619 17.6721 48.9619 15.8066V15.7643C48.9619 13.9411 47.3984 12.8822 44.5153 12.8822H40.0686C40.003 12.882 39.9379 12.895 39.8772 12.9204C39.8164 12.9458 39.7612 12.9832 39.7147 13.0303C39.6682 13.0775 39.6313 13.1335 39.6062 13.1952C39.581 13.2568 39.568 13.323 39.568 13.3897V18.3299C39.568 18.465 39.6208 18.5944 39.7146 18.6899C39.8085 18.7854 39.9359 18.839 40.0686 18.839H44.8767Z" fill="white"/>
<path d="M52.5078 5.5251C52.5076 5.45832 52.5204 5.39216 52.5454 5.3304C52.5704 5.26865 52.6071 5.21253 52.6535 5.16524C52.6999 5.11795 52.7549 5.08043 52.8156 5.05483C52.8763 5.02923 52.9413 5.01605 53.007 5.01605H58.637C60.43 5.01605 61.8687 5.58781 62.7437 6.47463C63.4551 7.20948 63.8526 8.20016 63.8496 9.23134V9.27364C63.8496 11.4819 62.4152 12.8501 60.3583 13.3577C60.2766 13.3763 60.2008 13.4156 60.138 13.4719C60.0751 13.5282 60.0272 13.5996 59.9986 13.6797C59.97 13.7597 59.9617 13.8458 59.9744 13.93C59.9872 14.0141 60.0205 14.0937 60.0714 14.1613L63.7679 19.0271C63.8249 19.1024 63.8601 19.1924 63.8694 19.287C63.8787 19.3816 63.8618 19.4769 63.8206 19.5622C63.7794 19.6475 63.7156 19.7194 63.6363 19.7697C63.557 19.82 63.4654 19.8467 63.372 19.8469H63.2601C63.1836 19.8465 63.1082 19.8285 63.0396 19.7941C62.971 19.7598 62.911 19.71 62.8642 19.6485L58.5151 13.8973C58.4684 13.8352 58.4082 13.7849 58.3393 13.7503C58.2704 13.7156 58.1946 13.6976 58.1177 13.6975H54.0914C53.9588 13.6979 53.8319 13.7517 53.7383 13.8471C53.6447 13.9425 53.5922 14.0718 53.5922 14.2065V19.3378C53.5922 19.4728 53.5394 19.6023 53.4456 19.6978C53.3517 19.7932 53.2244 19.8469 53.0916 19.8469H53.007C52.9413 19.8469 52.8763 19.8337 52.8156 19.8081C52.7549 19.7825 52.6999 19.745 52.6535 19.6977C52.6071 19.6504 52.5704 19.5943 52.5454 19.5325C52.5204 19.4708 52.5076 19.4046 52.5078 19.3378V5.5251ZM58.5122 12.7115C60.9507 12.7115 62.7652 11.4615 62.7652 9.32031V9.27801C62.7652 7.28414 61.2232 6.03414 58.5753 6.03414H54.0914C53.959 6.03414 53.832 6.08762 53.7384 6.18281C53.6448 6.278 53.5922 6.4071 53.5922 6.54172V12.2039C53.5922 12.3385 53.6448 12.4676 53.7384 12.5628C53.832 12.658 53.959 12.7115 54.0914 12.7115H58.5122Z" fill="white"/>
<path d="M72.4073 4.90955H72.8103C72.9054 4.90909 72.9986 4.93631 73.0789 4.98801C73.1592 5.0397 73.2233 5.11371 73.2636 5.20127L79.5979 19.1307C79.6346 19.2084 79.6513 19.2944 79.6464 19.3805C79.6414 19.4666 79.6151 19.55 79.5698 19.6229C79.5245 19.6958 79.4617 19.7558 79.3873 19.7972C79.313 19.8387 79.2295 19.8603 79.1446 19.86H79.06C78.964 19.8599 78.87 19.8316 78.7893 19.7786C78.7087 19.7256 78.6448 19.65 78.6053 19.561L77.016 16.002C76.9751 15.9143 76.9105 15.8403 76.8297 15.7887C76.7489 15.737 76.6553 15.7098 76.5599 15.7103H68.5946C68.4992 15.7098 68.4056 15.737 68.3248 15.7887C68.244 15.8403 68.1794 15.9143 68.1385 16.002L66.5492 19.561C66.5098 19.6501 66.446 19.7258 66.3653 19.7788C66.2846 19.8319 66.1905 19.8601 66.0945 19.86H66.0729C65.988 19.8605 65.9043 19.8391 65.8298 19.7978C65.7552 19.7564 65.6922 19.6964 65.6468 19.6235C65.6013 19.5506 65.5748 19.4671 65.5698 19.3808C65.5648 19.2946 65.5815 19.2085 65.6182 19.1307L71.9526 5.20127C71.9932 5.1137 72.0576 5.03974 72.1381 4.98807C72.2187 4.9364 72.312 4.90916 72.4073 4.90955V4.90955ZM76.1023 13.9863L73.0427 7.13096C73.0028 7.04216 72.9387 6.96689 72.858 6.91411C72.7772 6.86133 72.6833 6.83326 72.5873 6.83326C72.4913 6.83326 72.3973 6.86133 72.3166 6.91411C72.2358 6.96689 72.1717 7.04216 72.1319 7.13096L69.0536 13.9863C69.0188 14.0638 69.0037 14.1489 69.0096 14.2339C69.0156 14.3189 69.0424 14.401 69.0877 14.4727C69.1329 14.5444 69.1951 14.6034 69.2686 14.6443C69.3421 14.6852 69.4245 14.7067 69.5083 14.7068H75.6476C75.7312 14.7066 75.8134 14.6851 75.8867 14.6443C75.96 14.6034 76.0221 14.5446 76.0673 14.4731C76.1126 14.4016 76.1394 14.3197 76.1455 14.2349C76.1516 14.1501 76.1368 14.0652 76.1023 13.9877" fill="white"/>
<path d="M79.4014 5.01605H79.5147C79.6128 5.01624 79.7087 5.04562 79.7905 5.10057C79.8723 5.15552 79.9365 5.23364 79.9752 5.32527L85.0989 17.5773C85.1374 17.6691 85.2015 17.7473 85.2834 17.8023C85.3653 17.8573 85.4612 17.8866 85.5593 17.8866C85.6574 17.8866 85.7534 17.8573 85.8352 17.8023C85.9171 17.7473 85.9812 17.6691 86.0198 17.5773L91.1621 5.32527C91.2004 5.23341 91.2646 5.15509 91.3465 5.10009C91.4284 5.04509 91.5244 5.01586 91.6225 5.01605H91.6742C91.7573 5.01622 91.839 5.03742 91.912 5.07773C91.9851 5.11804 92.0471 5.1762 92.0925 5.24697C92.1379 5.31774 92.1652 5.39888 92.1721 5.48308C92.1789 5.56729 92.1651 5.6519 92.1317 5.7293L86.1474 19.6572C86.1087 19.7479 86.0448 19.8251 85.9635 19.8793C85.8822 19.9335 85.7871 19.9623 85.6898 19.9621H85.3857C85.2884 19.9622 85.1931 19.9334 85.1116 19.8792C85.03 19.8251 84.9658 19.7479 84.9267 19.6572L78.9424 5.7293C78.909 5.65179 78.8952 5.56704 78.9021 5.48272C78.909 5.3984 78.9365 5.31716 78.9821 5.24636C79.0276 5.17556 79.0898 5.11742 79.1631 5.07721C79.2363 5.037 79.3182 5.01598 79.4014 5.01605" fill="white"/>
<path d="M94.9848 5.01605H104.367C104.5 5.01605 104.628 5.06984 104.722 5.16558C104.816 5.26131 104.869 5.39116 104.869 5.52655C104.869 5.66195 104.816 5.7918 104.722 5.88753C104.628 5.98327 104.5 6.03706 104.367 6.03706H96.0692C96.0034 6.03706 95.9383 6.05022 95.8776 6.07581C95.8169 6.10139 95.7617 6.13888 95.7152 6.18615C95.6687 6.23342 95.6318 6.28954 95.6067 6.3513C95.5815 6.41306 95.5686 6.47925 95.5686 6.5461V11.3594C95.5686 11.4944 95.6213 11.6239 95.7152 11.7194C95.8091 11.8148 95.9364 11.8684 96.0692 11.8684H103.429C103.495 11.8684 103.56 11.8816 103.62 11.9072C103.681 11.9328 103.736 11.9703 103.783 12.0176C103.829 12.0649 103.866 12.121 103.891 12.1828C103.916 12.2445 103.928 12.3107 103.928 12.3775V12.3775C103.928 12.5122 103.876 12.6415 103.782 12.7369C103.689 12.8323 103.562 12.8861 103.429 12.8865H96.0692C96.0035 12.8863 95.9384 12.8993 95.8777 12.9248C95.817 12.9502 95.7618 12.9875 95.7153 13.0347C95.6688 13.0818 95.6319 13.1379 95.6067 13.1995C95.5815 13.2612 95.5686 13.3273 95.5686 13.3941V18.3343C95.5686 18.4693 95.6213 18.5988 95.7152 18.6943C95.8091 18.7897 95.9364 18.8434 96.0692 18.8434H104.472C104.605 18.8434 104.733 18.8971 104.827 18.9929C104.921 19.0886 104.974 19.2185 104.974 19.3539C104.974 19.4893 104.921 19.6191 104.827 19.7148C104.733 19.8106 104.605 19.8644 104.472 19.8644H94.9848C94.852 19.8644 94.7247 19.8107 94.6308 19.7153C94.5369 19.6198 94.4842 19.4903 94.4842 19.3553V5.5251C94.4842 5.39009 94.5369 5.26061 94.6308 5.16515C94.7247 5.06968 94.852 5.01605 94.9848 5.01605Z" fill="white"/>
<path d="M112.104 13.5604V5.5251C112.104 5.39009 112.157 5.26061 112.251 5.16515C112.345 5.06968 112.472 5.01605 112.605 5.01605H114.168C114.301 5.01605 114.429 5.06968 114.522 5.16515C114.616 5.26061 114.669 5.39009 114.669 5.5251V13.4539C114.669 16.2106 116.066 17.694 118.36 17.694C120.653 17.694 122.029 16.2952 122.029 13.5604V5.5251C122.029 5.39009 122.082 5.26061 122.176 5.16515C122.27 5.06968 122.397 5.01605 122.53 5.01605H124.093C124.226 5.01605 124.353 5.06968 124.447 5.16515C124.541 5.26061 124.594 5.39009 124.594 5.5251V13.432C124.594 17.8632 122.134 20.0904 118.318 20.0904C114.503 20.0904 112.104 17.8617 112.104 13.5604Z" fill="white"/>
<path d="M127.077 5.5251C127.077 5.39009 127.129 5.26061 127.223 5.16515C127.317 5.06968 127.445 5.01605 127.577 5.01605H132.832C136.23 5.01605 138.377 6.98805 138.377 9.97521V10.0175C138.377 13.346 135.751 15.0846 132.539 15.0846H130.142C130.009 15.0846 129.882 15.1382 129.788 15.2337C129.694 15.3292 129.641 15.4586 129.641 15.5937V19.3466C129.641 19.4134 129.628 19.4796 129.603 19.5414C129.578 19.6031 129.541 19.6592 129.495 19.7065C129.448 19.7538 129.393 19.7913 129.332 19.8169C129.272 19.8424 129.207 19.8556 129.141 19.8556H127.577C127.512 19.8556 127.446 19.8424 127.386 19.8169C127.325 19.7913 127.27 19.7538 127.223 19.7065C127.177 19.6592 127.14 19.6031 127.115 19.5414C127.09 19.4796 127.077 19.4134 127.077 19.3466V5.5251ZM132.622 12.7334C134.561 12.7334 135.778 11.6307 135.778 10.0831V10.0409C135.778 8.30223 134.548 7.39062 132.622 7.39062H130.142C130.009 7.39062 129.882 7.44425 129.788 7.53971C129.694 7.63518 129.641 7.76465 129.641 7.89966V12.2243C129.641 12.3593 129.694 12.4888 129.788 12.5843C129.882 12.6798 130.009 12.7334 130.142 12.7334H132.622Z" fill="white"/>
<path d="M140.042 5.9014C140.042 5.87952 140.042 5.85764 140.042 5.83576C140.042 5.64776 140.116 5.46745 140.246 5.33451C140.377 5.20158 140.554 5.12689 140.739 5.12689H142.306C142.491 5.12728 142.668 5.20229 142.799 5.33546C142.929 5.46863 143.003 5.64908 143.003 5.83722C143.004 5.85859 143.004 5.88003 143.003 5.9014L142.286 14.5741C142.269 14.7668 142.182 14.9462 142.042 15.0769C141.902 15.2075 141.719 15.28 141.528 15.28C141.338 15.28 141.155 15.2075 141.015 15.0769C140.874 14.9462 140.787 14.7668 140.771 14.5741L140.042 5.9014ZM141.543 17.0624C141.723 17.0624 141.902 17.0986 142.069 17.1689C142.236 17.2392 142.387 17.3423 142.515 17.4722C142.642 17.6021 142.744 17.7563 142.813 17.926C142.882 18.0957 142.917 18.2776 142.917 18.4612V18.591C142.917 18.9562 142.774 19.3064 142.52 19.5646C142.266 19.8228 141.922 19.9679 141.563 19.9679C141.376 19.9679 141.192 19.9305 141.02 19.858C140.847 19.7854 140.691 19.679 140.559 19.5449C140.427 19.4108 140.323 19.2516 140.252 19.0764C140.18 18.9012 140.144 18.7135 140.144 18.5239V18.4845C140.144 18.1074 140.291 17.7456 140.554 17.479C140.816 17.2123 141.172 17.0624 141.543 17.0624" fill="white"/>
</g>
<defs>
<clipPath id="clip0_2983_7053">
<rect width="143" height="25" fill="white"/>
</clipPath>
</defs>
</svg>
