<svg width="18" height="17" viewBox="0 0 18 17" fill="none" xmlns="http://www.w3.org/2000/svg">
<path d="M1.7998 5.26824L8.9998 9.34994L16.1998 5.26824C16.1732 4.76293 15.9721 4.28796 15.6378 3.94062C15.3036 3.59328 14.8614 3.39984 14.4018 3.39994H3.59778C3.13823 3.39984 2.69604 3.59328 2.36178 3.94062C2.02751 4.28796 1.82646 4.76293 1.7998 5.26824Z" fill="white"/>
<path d="M16.1998 6.375L8.9998 10.2L1.7998 6.375V11.9C1.7998 12.3509 1.98945 12.7833 2.32701 13.1021C2.66458 13.4209 3.12241 13.6 3.5998 13.6H14.3998C14.8772 13.6 15.335 13.4209 15.6726 13.1021C16.0102 12.7833 16.1998 12.3509 16.1998 11.9V6.375Z" fill="white"/>
</svg>
